<?xml version="1.0" encoding="utf-8"?>
<!-- Generator: Adobe Illustrator 26.4.1, SVG Export Plug-In . SVG Version: 6.00 Build 0)  -->
<svg version="1.1" id="Capa_1" xmlns:xodm="http://www.corel.com/coreldraw/odm/2003"
	 xmlns="http://www.w3.org/2000/svg" xmlns:xlink="http://www.w3.org/1999/xlink" x="0px" y="0px" viewBox="0 0 43.2 10.3"
	 style="enable-background:new 0 0 43.2 10.3;" xml:space="preserve">
<style type="text/css">
	.st0{fill:#FFFFFF;}
</style>
<g id="Capa_x0020_1">
	<path class="st0" d="M2.5,5.3v0.6H0V2.6h2.5v0.6H0.8V4h1.5v0.6H0.8v0.8L2.5,5.3L2.5,5.3z M3.2,2.6H4v2.7h1.6v0.6H3.2V2.6L3.2,2.6z
		 M8.9,6C8.6,6,8.3,5.9,8,5.8S7.5,5.4,7.3,5.2S7.1,4.6,7.1,4.3s0.1-0.6,0.2-0.9C7.5,3.1,7.7,2.9,8,2.8c0.3-0.1,0.6-0.2,0.9-0.2
		c0.3,0,0.5,0.1,0.8,0.2c0.2,0.1,0.4,0.2,0.6,0.4L9.8,3.6C9.5,3.4,9.3,3.2,8.9,3.2c-0.2,0-0.4,0-0.5,0.1C8.2,3.5,8.1,3.6,8,3.7
		C7.9,3.9,7.9,4.1,7.9,4.3c0,0.2,0,0.4,0.1,0.5C8.1,5,8.2,5.1,8.4,5.2s0.3,0.1,0.5,0.1c0.3,0,0.6-0.1,0.8-0.4l0.5,0.5
		C10,5.6,9.8,5.7,9.6,5.8C9.4,5.9,9.2,6,8.9,6z M13.8,2.6v3.3H13V4.6h-1.5v1.3h-0.8V2.6h0.8v1.3H13V2.6H13.8z M16.2,6
		c-0.3,0-0.7-0.1-0.9-0.2c-0.3-0.1-0.5-0.3-0.6-0.6c-0.2-0.3-0.2-0.5-0.2-0.9s0.1-0.6,0.2-0.9c0-0.2,0.3-0.4,0.5-0.6
		c0.3-0.1,0.6-0.2,0.9-0.2c0.3,0,0.6,0.1,0.9,0.2c0.3,0.1,0.5,0.3,0.6,0.6C17.9,3.7,18,4,18,4.3s-0.1,0.6-0.2,0.9
		c-0.2,0.3-0.4,0.5-0.6,0.6C16.8,5.9,16.5,6,16.2,6z M16.2,5.3c0.2,0,0.4,0,0.5-0.1C16.8,5.1,17,5,17.1,4.8s0.1-0.3,0.1-0.5
		s0-0.4-0.1-0.5c-0.1-0.2-0.2-0.3-0.4-0.4c-0.2-0.1-0.3-0.1-0.5-0.1s-0.4,0-0.5,0.1c-0.2,0.1-0.3,0.2-0.4,0.4
		c-0.1,0.2-0.1,0.3-0.1,0.5s0,0.4,0.1,0.5s0.2,0.3,0.4,0.4C15.8,5.3,16,5.3,16.2,5.3z M20.1,6c-0.3,0-0.6-0.1-0.9-0.2
		s-0.5-0.3-0.6-0.6c-0.2-0.3-0.2-0.6-0.2-0.9s0.1-0.6,0.2-0.9c0.2-0.3,0.4-0.5,0.6-0.6c0.3-0.1,0.6-0.2,0.9-0.2s0.5,0.1,0.8,0.2
		c0.2,0.1,0.4,0.2,0.6,0.4L21,3.6c-0.2-0.3-0.5-0.4-0.8-0.4c-0.2,0-0.4,0-0.5,0.1c-0.2,0.1-0.3,0.2-0.4,0.4S19.2,4,19.2,4.2
		c0,0.2,0,0.4,0.1,0.5c0.1,0.2,0.2,0.3,0.4,0.4c0.2,0.1,0.3,0.1,0.5,0.1c0.3,0,0.6-0.1,0.8-0.4l0.5,0.5c-0.2,0.2-0.4,0.3-0.6,0.4
		C20.6,5.9,20.4,6,20.1,6z M23.5,6c-0.3,0-0.7-0.1-0.9-0.2c-0.3-0.1-0.5-0.3-0.6-0.6c-0.2-0.3-0.2-0.5-0.2-0.9s0.1-0.6,0.2-0.9
		s0.4-0.5,0.6-0.6c0.3-0.1,0.6-0.2,0.9-0.2s0.6,0.1,0.9,0.2c0.3,0.1,0.5,0.3,0.6,0.6c0.2,0.3,0.2,0.5,0.2,0.9S25.1,4.9,25,5.2
		c-0.2,0.3-0.4,0.5-0.6,0.6C24.1,5.9,23.8,6,23.5,6z M23.5,5.3c0.2,0,0.4,0,0.5-0.1c0.2-0.1,0.3-0.2,0.4-0.4
		c0.1-0.2,0.1-0.3,0.1-0.5s0-0.4-0.1-0.5c-0.1-0.2-0.2-0.3-0.4-0.4c-0.2-0.1-0.3-0.1-0.5-0.1s-0.4,0-0.5,0.1
		c-0.2,0.1-0.3,0.2-0.4,0.4c-0.1,0.2-0.1,0.3-0.1,0.5s0,0.4,0.1,0.5C22.7,5,22.8,5.1,23,5.2C23.1,5.3,23.3,5.3,23.5,5.3z M28.9,2.6
		v3.3h-0.6l-1.6-2v2h-0.8V2.6h0.6l1.6,2v-2H28.9z M30.3,3.3h-1.1V2.6h2.9v0.6H31v2.7h-0.8V3.3H30.3z M34.6,5.2H33l-0.3,0.7H32
		l1.5-3.3h0.8l1.5,3.3H35L34.6,5.2L34.6,5.2z M34.3,4.6l-0.5-1.3l-0.5,1.3H34.3z M39,2.6v3.3h-0.6l-1.6-2v2H36V2.6h0.6l1.6,2v-2
		C38.3,2.6,39,2.6,39,2.6z M41.4,6c-0.3,0-0.7-0.1-0.9-0.2c-0.3-0.1-0.5-0.3-0.6-0.6c-0.2-0.3-0.2-0.5-0.2-0.9s0.1-0.6,0.2-0.9
		C40,3.2,40.2,3,40.5,2.8c0.3-0.1,0.6-0.2,0.9-0.2s0.6,0.1,0.9,0.2C42.6,3,42.8,3.2,43,3.4s0.2,0.5,0.2,0.9S43.1,4.9,43,5.2
		c-0.2,0.3-0.4,0.5-0.6,0.6C42,5.9,41.7,6,41.4,6z M41.4,5.3c0.2,0,0.4,0,0.5-0.1c0.2-0.1,0.3-0.2,0.4-0.4c0.1-0.2,0.1-0.3,0.1-0.5
		s0-0.4-0.1-0.5c-0.1-0.2-0.2-0.3-0.4-0.4c-0.2-0.1-0.3-0.1-0.5-0.1s-0.4,0-0.5,0.1c-0.2,0.1-0.3,0.2-0.4,0.4
		c-0.1,0.2-0.1,0.3-0.1,0.5s0,0.4,0.1,0.5s0.2,0.3,0.4,0.4C41,5.3,41.2,5.3,41.4,5.3z"/>
	<path class="st0" d="M9.1,10.3L8.4,9.4c-0.1,0-0.1,0-0.2,0H7.5v0.9H7.2V7.5h1c0.4,0,0.6,0.1,0.8,0.3C9.2,8,9.3,8.2,9.3,8.5
		c0,0.2-0.1,0.4-0.2,0.6S8.9,9.2,8.7,9.3l0.7,1H9.1L9.1,10.3z M8.2,9.1c0.3,0,0.5-0.1,0.6-0.2S9,8.6,9,8.4C9.1,8.2,9,8,8.8,7.9
		C8.7,7.8,8.5,7.7,8.2,7.7H7.5v1.4L8.2,9.1L8.2,9.1z M12,10v0.3h-2V7.5h2v0.3h-1.6v1h1.4V9h-1.4v1H12L12,10z M13.5,10.3
		c-0.2,0-0.4,0-0.6-0.1c-0.2-0.1-0.3-0.2-0.4-0.3l0.1-0.2c0.1,0.1,0.2,0.2,0.4,0.2c0.2,0.1,0.3,0.1,0.5,0.1s0.4,0,0.6-0.1
		c0.1-0.1,0.2-0.2,0.2-0.4c0-0.1,0-0.2-0.1-0.3S14,9.1,14,9c-0.1,0-0.2-0.1-0.4-0.1c-0.2-0.1-0.4-0.1-0.5-0.2
		c-0.1,0-0.2-0.1-0.3-0.2c-0.1-0.1-0.1-0.2-0.1-0.4c0-0.1,0-0.3,0.1-0.4s0.2-0.2,0.3-0.3c0.2-0.1,0.3-0.1,0.6-0.1
		c0.2,0,0.3,0,0.5,0.1c0.2,0,0.3,0.1,0.4,0.2l-0.1,0.2c-0.1-0.1-0.2-0.1-0.4-0.2c-0.1,0-0.3-0.1-0.4-0.1c-0.2,0-0.4,0-0.6,0.1
		C13,7.7,12.9,7.8,12.9,8c0,0.1,0,0.2,0.1,0.3s0.2,0.1,0.3,0.2c0.1,0,0.2,0.1,0.4,0.1c0.2,0.1,0.4,0.1,0.5,0.2s0.2,0.1,0.3,0.2
		c0.1,0.1,0.1,0.2,0.1,0.4c0,0.1,0,0.3-0.1,0.4c-0.1,0.1-0.2,0.2-0.3,0.3C13.9,10.3,13.7,10.3,13.5,10.3L13.5,10.3z M15.7,7.7h-1
		V7.5H17v0.3h-1v2.5h-0.3V7.7L15.7,7.7z M19.1,9.5h-1.6l-0.3,0.7h-0.3l1.3-2.8h0.3l1.3,2.8h-0.3C19.4,10.3,19.1,9.5,19.1,9.5z
		 M19,9.3l-0.7-1.5l-0.7,1.5C17.6,9.3,19,9.3,19,9.3z M21.2,10.3c-0.4,0-0.6-0.1-0.8-0.3c-0.2-0.2-0.3-0.5-0.3-0.9V7.5h0.3v1.6
		c0,0.3,0.1,0.6,0.2,0.7C20.8,9.9,21,10,21.2,10c0.3,0,0.5-0.1,0.6-0.2C21.9,9.6,22,9.4,22,9.1V7.5h0.3v1.6c0,0.4-0.1,0.7-0.3,0.9
		C21.9,10.2,21.6,10.3,21.2,10.3L21.2,10.3z M25.2,10.3l-0.6-0.9c-0.1,0-0.1,0-0.2,0h-0.8v0.9h-0.3V7.5h1c0.4,0,0.6,0.1,0.8,0.3
		c0.2,0.2,0.3,0.4,0.3,0.7c0,0.2-0.1,0.4-0.2,0.6c-0.1,0.2-0.3,0.3-0.5,0.3l0.7,1L25.2,10.3L25.2,10.3z M24.3,9.1
		c0.3,0,0.5-0.1,0.6-0.2c0.1-0.1,0.2-0.3,0.2-0.5S25,8,24.9,7.9c-0.1-0.1-0.4-0.2-0.6-0.2h-0.7v1.4H24.3L24.3,9.1z M27.9,9.5h-1.6
		L26,10.3h-0.3L27,7.5h0.3l1.3,2.8h-0.3L27.9,9.5z M27.8,9.3l-0.7-1.5l-0.7,1.5H27.8z M31.4,7.5v2.8h-0.2L29.3,8v2.3H29V7.5h0.2
		L31,9.8V7.5H31.4z M32.8,7.7h-1V7.5h2.3v0.3h-1v2.5h-0.3V7.7L32.8,7.7z M36.6,10v0.3h-2V7.5h1.9v0.3h-1.6v1h1.4V9h-1.4v1H36.6
		L36.6,10z"/>
	<path class="st0" d="M15.2,0h0.6c0.1,0,0.3,0,0.4,0.1s0.2,0.1,0.3,0.2s0.1,0.2,0.1,0.4s0,0.3-0.1,0.4s-0.2,0.2-0.3,0.2
		c-0.1,0.1-0.2,0.1-0.4,0.1h-0.6L15.2,0L15.2,0z M15.8,1.3c0.1,0,0.2,0,0.3-0.1c0.1,0,0.2-0.1,0.2-0.2c0.1-0.1,0.1-0.2,0.1-0.3
		s0-0.2-0.1-0.3s-0.1-0.2-0.2-0.2s-0.2-0.1-0.3-0.1h-0.4v1.1L15.8,1.3L15.8,1.3z M17.9,1.3v0.1h-1V0h1v0.1H17v0.5h0.7v0.1H17v0.5
		C17,1.3,17.9,1.3,17.9,1.3z M18.6,1.4c-0.1,0-0.2,0-0.3-0.1c-0.1,0-0.2-0.1-0.2-0.1l0.1-0.1c0.1,0.1,0.1,0.1,0.2,0.1s0.2,0,0.3,0
		c0.1,0,0.2,0,0.3-0.1c0.1,0,0.1-0.1,0.1-0.2s0-0.1-0.1-0.1s-0.1-0.1-0.1-0.1s-0.1,0-0.2-0.1c-0.1,0-0.2-0.1-0.3-0.1
		c-0.1,0-0.1-0.1-0.2-0.1c0-0.1-0.1-0.1-0.1-0.2s0-0.1,0.1-0.2c0-0.1,0.1-0.1,0.2-0.1C18.4,0,18.5,0,18.6,0s0.2,0,0.2,0
		s0.1,0.1,0.2,0.1l0,0.1c-0.1,0-0.1-0.1-0.2-0.1s-0.1,0-0.2,0s-0.2,0-0.3,0.1s-0.1,0.1-0.1,0.2s0,0.1,0.1,0.1l0.1,0.1
		c0.1,0,0.1,0,0.2,0.1c0.1,0,0.2,0.1,0.2,0.1c0.2-0.1,0.2,0,0.2,0c0,0.1,0.1,0.1,0.1,0.2s0,0.1-0.1,0.2c0,0.1-0.1,0.1-0.2,0.1
		C18.8,1.4,18.7,1.4,18.6,1.4L18.6,1.4z M19.4,0H20c0.1,0,0.3,0,0.4,0.1s0.2,0.1,0.3,0.2s0.1,0.2,0.1,0.4s0,0.3-0.1,0.4
		s-0.2,0.2-0.3,0.2c-0.1,0.1-0.2,0.1-0.4,0.1h-0.6V0L19.4,0z M20,1.3c0.1,0,0.2,0,0.3-0.1c0.1,0,0.2-0.1,0.2-0.2
		c0.1-0.1,0.1-0.2,0.1-0.3s0-0.2-0.1-0.3s-0.1-0.2-0.2-0.2S20.1,0.1,20,0.1h-0.4v1.1L20,1.3L20,1.3z M22.1,1.3v0.1h-1V0h1v0.1h-0.8
		v0.5H22v0.1h-0.7v0.5C21.2,1.3,22.1,1.3,22.1,1.3z M23.2,0v1.4h-0.1V0.1h-0.3V0H23.2L23.2,0z M24,0c0.2,0,0.3,0.1,0.4,0.2
		s0.1,0.3,0.1,0.5s0,0.3-0.1,0.4s-0.1,0.2-0.2,0.2c-0.1,0.1-0.2,0.1-0.3,0.1c-0.1,0-0.2,0-0.3-0.1l0.1-0.1c0.1,0,0.2,0.1,0.3,0.1
		c0.2,0,0.3,0,0.4-0.1s0.1-0.2,0.1-0.4V0.7c0,0.1-0.1,0.1-0.2,0.2C24.2,0.9,24.1,1,24,1c-0.1,0-0.2,0-0.2-0.1
		c-0.1,0-0.1-0.1-0.2-0.1c0-0.1-0.1-0.1-0.1-0.2s0-0.2,0.1-0.2c0-0.1,0.1-0.1,0.2-0.2C23.8,0,23.9,0,24,0L24,0z M24,0.7
		c0.1,0,0.1,0,0.2,0s0.1-0.1,0.1-0.1s0-0.1,0-0.2s0-0.1,0-0.1l-0.1-0.1c0,0-0.1,0-0.2,0s-0.2,0-0.2,0.1c-0.1,0.1-0.1,0.1-0.1,0.2
		s0,0.2,0.1,0.2C23.8,0.7,23.9,0.7,24,0.7L24,0.7z M25.7,0v0.1l-0.6,1.3H25l0.6-1.3h-0.7v0.3h-0.1V0H25.7L25.7,0z M26.3,0.6
		c0.2,0,0.3,0,0.4,0.1s0.1,0.2,0.1,0.3s0,0.2-0.1,0.2c0,0.1-0.1,0.1-0.2,0.2s-0.2,0.1-0.3,0.1c-0.1,0-0.2,0-0.3,0
		c-0.1,0-0.2-0.1-0.2-0.1l0.1-0.1c0,0,0.1,0.1,0.2,0.1s0.2,0,0.2,0c0.1,0,0.2,0,0.3-0.1c0.1-0.1,0.1-0.1,0.1-0.2s0-0.2-0.1-0.2
		s-0.2-0.1-0.4-0.1h-0.3L26,0h0.8v0.1h-0.6v0.4h0.1V0.6z"/>
	<g id="_1519862650656">
		<path class="st0" d="M4.2,8.9c0,0.1,0,0.2,0,0.3v0.1c0,0.1,0,0.3,0,0.4c0,0.1,0,0.2,0.1,0.3l0,0v0.1L4.2,10l0,0c0,0,0.1,0.1,0,0.1
			H4.1C4,10.1,4,10.1,4,10c0,0,0,0,0-0.1V9.8c0-0.1,0-0.2,0-0.3s0-0.1,0-0.2c0-0.1,0-0.1,0-0.2l0,0C4.1,9.1,4.1,9,4.2,8.9L4.2,8.9z
			 M1.9,8.2C1.9,8.4,2,8.5,2,8.7c0,0.1,0.1,0.1,0.1,0.2c0.1,0,0.2,0.1,0.2,0.3c0,0,0,0,0,0.1c-0.2,0-0.1,0.1-0.1,0.3
			c0,0.1,0.1,0.2,0.1,0.3L2.4,10c0,0,0.1,0,0.1,0.1v0.1c-0.1,0-0.1,0-0.2,0l0,0c0-0.1-0.1-0.1-0.1-0.2C2,9.9,2,9.8,2,9.7
			S1.9,9.5,1.9,9.4s0-0.1,0-0.1V9.2C2,9,2,8.9,1.9,8.8c-0.1-0.1,0-0.2-0.1-0.3c0-0.1,0-0.1,0-0.2C1.9,8.3,1.9,8.2,1.9,8.2L1.9,8.2z
			 M1.7,8c0-0.1,0.1-0.1,0.2-0.2l0,0C2,7.7,2.2,7.6,2.4,7.6c0.1,0,0.3,0,0.4,0c0.1,0,0.1,0,0.2,0c0.2,0,0.3,0,0.5,0l0,0
			c0.2,0,0.4,0,0.6,0h0.1c0.2,0,0.2-0.1,0.3-0.2c0,0,0-0.1,0.1,0c0.1,0,0.1,0.1,0.2,0.1c-0.1,0-0.2-0.1-0.3-0.2
			c-0.1-0.1,0-0.1,0.1-0.1s0.2,0,0.3,0c0,0-0.1,0-0.1-0.1L4.9,7H5h0.2c0,0,0.1,0,0.1,0.1c0.1,0,0.1,0.1,0.1,0.1c0,0.1,0,0.1,0.1,0.1
			c0,0,0,0.1,0.1,0.1c0,0.1,0.1,0.2,0.1,0.3c0,0.1,0,0.1,0,0.1c-0.1,0.1-0.1,0.1-0.2,0c0,0,0,0-0.1-0.1c0,0.1,0.1,0.1,0.1,0.1l0,0
			l0,0c-0.1,0-0.1,0-0.2-0.1c0,0.1-0.2,0-0.4-0.2C5,7.9,5,8,5,8v0.1c0,0,0,0-0.1,0.1c0,0-0.1,0.1-0.2,0.2c0,0,0,0.1-0.1,0.1
			c0,0,0,0.1,0,0.2v0.1c0,0.1-0.1,0.1-0.2,0.1H4.3V8.8l0,0C4.2,8.9,4.1,9,4,9c0,0,0,0,0,0.1c0,0.2,0,0.3,0,0.5c0,0.1,0,0.2,0,0.3
			s0,0.1,0.1,0.2c0,0,0,0,0,0.1c0,0,0-0.1-0.1-0.1l0,0c0,0.1,0,0.1-0.1,0.1s-0.1,0-0.1-0.1c0,0,0,0,0-0.1c-0.1-0.1-0.1-0.2,0-0.3
			c0-0.1,0-0.2,0-0.2c0-0.1,0-0.1,0-0.2l0,0c0-0.2-0.1-0.3-0.1-0.4l0,0c-0.1-0.1-0.1-0.2,0-0.3V8.5c0,0.1-0.1,0.2-0.1,0.3
			S3.7,9,3.7,9.1C3.5,9,3.5,9,3.3,9l0.1-0.1C3.3,9.1,3.1,9.1,2.9,9.1l0,0c-0.1,0-0.1,0-0.2,0.1c0,0.1-0.1,0.1-0.1,0.1s0,0,0,0.1
			c0,0.2,0,0.3,0.2,0.5c0,0,0.1,0.1,0,0.1v0.1c0.1,0,0.1,0.1,0.1,0.1v0.1c-0.1,0-0.1,0-0.2,0l0,0c0-0.1-0.1-0.1-0.1-0.1v-0.1
			c0-0.2-0.1-0.3-0.2-0.5V9.5c0,0,0,0,0-0.1c0.1-0.1,0-0.3,0-0.4c0-0.1-0.1-0.1-0.1-0.2C2,8.6,1.9,8.3,1.9,8.1l0,0
			c0,0.1-0.1,0.1,0,0.3c0,0,0,0.1-0.1,0.1s-0.1,0-0.1-0.1S1.6,8.3,1.6,8.2C1.6,8.2,1.6,8.1,1.7,8C1.7,8.1,1.7,8.1,1.7,8
			c0,0.1-0.1,0.1-0.1,0.1c0,0.1,0.1,0.2,0.1,0.3l0,0c0,0,0,0,0-0.1V8.2l0,0C1.7,8.2,1.7,8.1,1.7,8C1.7,8.1,1.7,8.1,1.7,8
			C1.7,8.1,1.8,8,1.7,8C1.8,8,1.8,8,1.7,8L1.7,8L1.7,8z M2.6,7.9C2.6,7.8,2.6,7.8,2.6,7.9C2.5,7.8,2.5,7.7,2.5,7.7l0,0
			c-0.1,0-0.2,0-0.3,0l0,0C2.1,7.7,2,7.7,2,7.8l0,0c0.1,0,0.1,0,0.1,0h0.1c0,0.1,0.1,0,0.1,0.1l0,0l0,0l0,0c0-0.1,0.1-0.1,0.2,0
			c0,0,0,0,0,0.1C2.5,7.8,2.5,7.9,2.6,7.9C2.6,7.8,2.6,7.9,2.6,7.9L2.6,7.9z M2.6,8.1c0,0.1,0.1,0.3,0.1,0.4c0,0.1,0,0.3,0,0.4
			C2.9,8.6,2.8,8.4,2.6,8.1z M4.6,7.3c0.1,0,0.1,0.1,0.2,0.1l0,0c0,0.1,0,0.1,0.1,0.1c0,0,0,0,0.1,0c0,0,0,0,0-0.1
			C4.8,7.3,4.7,7.3,4.6,7.3L4.6,7.3z M3,7.8c-0.1,0-0.3,0-0.4,0c0.1,0,0.1,0,0.2,0c0,0,0.1,0.1,0.1,0C2.9,7.7,2.9,7.8,3,7.8
			C2.9,7.8,3,7.8,3,7.8z M3.9,7.7c-0.1,0-0.1,0-0.2,0c-0.1,0-0.2,0-0.2,0c0.1,0,0.2,0,0.2,0h0.1C3.8,7.8,3.8,7.8,3.9,7.7
			C3.8,7.8,3.9,7.7,3.9,7.7z M4.5,8.2v0.1l0,0l0,0l0,0l0,0c0,0,0,0,0,0.1c0,0,0,0,0,0.1C4.5,8.4,4.6,8.3,4.5,8.2L4.5,8.2z M4.5,7.9
			c0-0.1-0.1-0.2-0.2-0.2C4.3,7.7,4.4,7.7,4.5,7.9C4.3,7.8,4.4,7.8,4.5,7.9C4.4,7.8,4.4,7.8,4.5,7.9C4.4,7.8,4.4,7.9,4.5,7.9
			L4.5,7.9z M5.4,7.8c0-0.1,0-0.2-0.1-0.3v0.1c0,0,0,0,0,0.1C5.4,7.7,5.4,7.7,5.4,7.8L5.4,7.8z M4.3,8.6c0.1-0.1,0.1-0.1,0-0.2
			C4.4,8.5,4.4,8.5,4.3,8.6z M5,7.7c-0.1,0-0.1,0.1,0,0.2C5,7.8,4.9,7.7,5,7.7z M2.4,9.5c0.1,0,0-0.1,0-0.2C2.4,9.4,2.4,9.4,2.4,9.5
			z M4.6,8.1c0,0.1,0,0.1,0,0.2C4.6,8.2,4.6,8.2,4.6,8.1z M4.4,7.6c0.1,0,0.1-0.1,0.1-0.2C4.5,7.5,4.5,7.6,4.4,7.6z M5.1,7.2
			L5.1,7.2L5.1,7.2z M1.9,8C1.9,8,1.9,7.9,1.9,8C2,7.9,2,7.9,2,7.9C2,7.8,2,7.9,1.9,8C1.9,7.9,1.9,7.9,1.9,8L1.9,8z"/>
		<path class="st0" d="M39.5,8.9c0,0.1,0,0.2,0,0.3v0.1c0,0.1,0,0.3,0,0.4c0,0.1,0,0.2-0.1,0.3l0,0v0.1l0.1-0.1l0,0
			c0,0-0.1,0.1,0,0.1h0.1c0.1,0,0.1,0,0.1-0.1c0,0,0,0,0-0.1c0.1-0.1,0.1-0.1,0.1-0.2c0-0.1,0-0.2,0-0.3s0-0.1,0-0.2
			c0-0.1,0-0.1,0-0.2l0,0C39.6,9.1,39.6,9,39.5,8.9L39.5,8.9z M41.8,8.2c0,0.2-0.1,0.3-0.1,0.5c0,0.1-0.1,0.1-0.1,0.2
			c-0.1,0.1-0.1,0.2-0.1,0.3c0,0,0,0,0,0.1c0.1,0.1,0.1,0.2,0.1,0.4c0,0.1-0.1,0.2-0.1,0.3l-0.1,0.1c0,0-0.1,0-0.1,0.1v0.1
			c0.1,0,0.1,0,0.2,0l0,0c0-0.1,0.1-0.1,0.1-0.2c0-0.1,0-0.2,0.1-0.2c0-0.1,0.1-0.2,0.1-0.3s0-0.1,0-0.1V9.4c0-0.1,0-0.2,0.1-0.3
			s0-0.2,0.1-0.3c0-0.1,0-0.1,0-0.2C41.9,8.3,41.8,8.2,41.8,8.2L41.8,8.2z M42,8c0-0.1-0.1-0.1-0.2-0.2l0,0
			c-0.1-0.2-0.3-0.2-0.4-0.2c-0.1,0-0.3,0-0.4,0c-0.1,0-0.1,0-0.2,0c-0.2,0-0.3,0-0.5,0l0,0c-0.2,0-0.4,0-0.6,0h-0.1
			c-0.2,0-0.2-0.1-0.3-0.2c0,0,0-0.1-0.1,0c-0.1,0-0.1,0.1-0.2,0.1c0.1,0,0.2-0.1,0.3-0.2s0-0.1-0.1-0.1s-0.2,0-0.3,0
			c0,0,0.1,0,0.1-0.1L38.9,7h-0.1h-0.2c0,0-0.1,0-0.1,0.1c-0.1,0-0.1,0.1-0.1,0.1c0,0.1,0,0.1-0.1,0.1c0,0,0,0.1-0.1,0.1
			c0,0.1-0.1,0.2-0.1,0.3c0,0.1,0,0.1,0,0.1c0.1,0.1,0.1,0.1,0.2,0c0,0,0,0,0.1-0.1c0,0.1-0.1,0.1-0.1,0.1l0,0l0,0
			c0.1,0,0.1,0,0.2-0.1c0,0.1,0.2,0,0.4-0.2v0.1v0.1c0,0,0,0,0.1,0.1s0.1,0.1,0.2,0.2c0,0,0,0.1,0.1,0.1c0.1,0.1,0.1,0.1,0.1,0.2
			v0.1c0,0.1,0.1,0.1,0.2,0.1h0.1V8.4l0,0c0,0.1,0.1,0.2,0.2,0.3c0,0,0,0,0,0.1c0,0.2,0,0.3,0,0.5c0,0.1,0,0.2,0,0.3s0,0.1-0.1,0.2
			c0,0,0,0,0,0.1c0,0,0-0.1,0.1-0.1l0,0c0,0.1,0,0.1,0.1,0.1s0.1,0,0.1-0.1c0,0,0,0,0-0.1C40,10,40,9.9,40,9.8c0-0.1,0-0.2,0-0.2
			c0-0.1,0-0.1,0-0.2l0,0c0-0.2,0.1-0.3,0.1-0.4l0,0c0.1-0.1,0.1-0.2,0-0.3V8.6c0,0.1,0.1,0.2,0.1,0.3s-0.1,0.2-0.1,0.3
			c0.1,0,0.2,0,0.3,0.1l-0.1-0.1c0.2,0.1,0.4,0.2,0.6,0.2l0,0c0.1,0,0.1,0,0.2,0.1c0,0.1,0.1,0.1,0.1,0.1s0,0,0,0.1
			c0,0.2,0,0.3-0.2,0.5c0,0-0.1,0.1,0,0.1v0.1c-0.1,0-0.1,0.1-0.1,0.1v0.1c0.1,0,0.1,0,0.2,0l0,0c0-0.1,0.1-0.1,0.1-0.1v-0.1
			c0-0.2,0.1-0.3,0.2-0.5V9.8c0,0,0,0,0-0.1c-0.1-0.1,0-0.3,0-0.4c0-0.1,0.1-0.1,0.1-0.2c0.1-0.2,0.2-0.4,0.2-0.7l0,0
			c0.1,0.1,0.1,0.1,0.1,0.3c0,0,0,0.1,0.1,0.1s0.1,0,0.1-0.1s0.1-0.1,0.1-0.2C42.1,8.2,42.1,8.1,42,8C42,8.1,42,8.1,42,8
			c0,0.1,0.1,0.1,0.1,0.1c0,0.1-0.1,0.2-0.1,0.3l0,0c0,0,0,0,0-0.1V8.2l0,0C42,8.2,42,8.1,42,8C42,8.1,42,8.1,42,8C42,8.1,42,8,42,8
			C41.9,8,41.9,8,42,8C42,8,42,8,42,8L42,8z M41.1,7.9C41.1,7.8,41.2,7.8,41.1,7.9C41.2,7.8,41.2,7.8,41.1,7.9L41.1,7.9
			c0.2-0.1,0.3-0.1,0.4-0.1l0,0c0.1,0,0.1,0,0.1,0.1l0,0c-0.1,0-0.1,0-0.1,0h-0.1c0,0.1-0.1,0-0.1,0.1l0,0l0,0l0,0
			C41.3,7.9,41.2,7.9,41.1,7.9c0,0.1,0,0.1,0,0.2C41.2,7.8,41.2,7.9,41.1,7.9C41.2,7.8,41.2,7.9,41.1,7.9L41.1,7.9z M41.1,8.1
			c0,0.1-0.1,0.3-0.1,0.4c0,0.1,0,0.3,0,0.4C40.8,8.6,40.9,8.4,41.1,8.1z M39.2,7.3c-0.1,0-0.1,0.1-0.2,0.1l0,0c0,0.1,0,0.1-0.1,0.1
			c0,0,0,0-0.1,0s0,0,0-0.1C38.9,7.3,39,7.3,39.2,7.3L39.2,7.3z M40.8,7.8c0.1,0,0.3,0,0.4,0c-0.1,0-0.1,0-0.2,0c0,0-0.1,0.1-0.1,0
			C40.9,7.7,40.8,7.8,40.8,7.8L40.8,7.8z M39.9,7.7c0.1,0,0.1,0,0.2,0c0.1,0,0.2,0,0.2,0c-0.1,0-0.2,0-0.2,0H40
			C39.9,7.8,39.9,7.8,39.9,7.7C39.9,7.8,39.9,7.7,39.9,7.7z M39.3,8.2v0.1l0,0l0,0l0,0l0,0c0,0,0,0,0,0.1c0,0,0,0,0,0.1
			C39.2,8.4,39.2,8.3,39.3,8.2L39.3,8.2z M39.2,7.9c0-0.1,0.1-0.2,0.2-0.2c0,0-0.1,0-0.1,0.1C39.4,7.8,39.3,7.8,39.2,7.9
			C39.3,7.8,39.3,7.8,39.2,7.9C39.3,7.8,39.3,7.9,39.2,7.9L39.2,7.9z M38.3,7.8c0-0.1,0-0.2,0.1-0.3v0.1c0,0,0,0,0,0.1
			C38.3,7.7,38.3,7.7,38.3,7.8L38.3,7.8z M39.4,8.6c-0.1-0.1-0.1-0.1,0-0.2C39.4,8.5,39.4,8.5,39.4,8.6z M38.8,7.7
			c0.1,0.1,0.1,0.2,0,0.2C38.8,7.8,38.8,7.7,38.8,7.7z M41.3,9.5c-0.1,0,0-0.1,0-0.2C41.3,9.4,41.3,9.4,41.3,9.5z M39.2,8.1
			c0,0.1,0,0.1,0,0.2C39.1,8.2,39.1,8.2,39.2,8.1z M39.3,7.6c-0.1,0-0.1-0.1-0.1-0.2C39.3,7.5,39.3,7.6,39.3,7.6z M38.6,7.2
			L38.6,7.2C38.7,7.2,38.7,7.2,38.6,7.2z M41.8,8C41.8,8,41.8,7.9,41.8,8C41.7,7.9,41.7,7.9,41.8,8C41.8,7.8,41.8,7.9,41.8,8
			C41.8,7.9,41.8,7.9,41.8,8L41.8,8z"/>
	</g>
</g>
</svg>
