<?xml version="1.0" encoding="UTF-8"?>
<!DOCTYPE svg PUBLIC "-//W3C//DTD SVG 1.1//EN" "http://www.w3.org/Graphics/SVG/1.1/DTD/svg11.dtd">
<!-- Creator: CorelDRAW 2021 (64-Bit) -->
<svg xmlns="http://www.w3.org/2000/svg" xml:space="preserve" width="15.2386mm" height="3.6298mm" version="1.1" style="shape-rendering:geometricPrecision; text-rendering:geometricPrecision; image-rendering:optimizeQuality; fill-rule:evenodd; clip-rule:evenodd"
viewBox="0 0 222.68 53.04"
 xmlns:xlink="http://www.w3.org/1999/xlink"
 xmlns:xodm="http://www.corel.com/coreldraw/odm/2003">
 <defs>
  <style type="text/css">
   <![CDATA[
    .fil0 {fill:white;fill-rule:nonzero}
   ]]>
  </style>
 </defs>
 <g id="Capa_x0020_1">
  <metadata id="CorelCorpID_0Corel-Layer"/>
  <path class="fil0" d="M13.13 27.4l0 3.15 -13.13 0 0 -16.96 12.82 0 0 3.15 -8.92 0 0 3.68 7.87 0 0 3.05 -7.87 0 0 3.92 9.23 0zm3.13 -13.81l3.92 0 0 13.76 8.5 0 0 3.2 -12.43 0 0 -16.96zm29.6 17.25c-1.73,0 -3.29,-0.38 -4.69,-1.13 -1.4,-0.75 -2.5,-1.79 -3.3,-3.13 -0.8,-1.33 -1.2,-2.84 -1.2,-4.52 0,-1.68 0.4,-3.19 1.2,-4.52 0.8,-1.33 1.9,-2.37 3.3,-3.13 1.4,-0.75 2.97,-1.13 4.71,-1.13 1.47,0 2.8,0.26 3.98,0.78 1.19,0.52 2.18,1.26 2.99,2.23l-2.52 2.33c-1.15,-1.33 -2.57,-1.99 -4.26,-1.99 -1.05,0 -1.99,0.23 -2.81,0.69 -0.82,0.46 -1.47,1.1 -1.93,1.93 -0.46,0.82 -0.69,1.76 -0.69,2.81 0,1.05 0.23,1.99 0.69,2.81 0.46,0.82 1.1,1.47 1.93,1.93 0.82,0.46 1.76,0.69 2.81,0.69 1.7,0 3.12,-0.67 4.26,-2.01l2.52 2.33c-0.81,0.98 -1.81,1.74 -3,2.25 -1.2,0.52 -2.53,0.78 -4,0.78zm25.19 -17.25l0 16.96 -3.92 0 0 -6.95 -7.7 0 0 6.95 -3.92 0 0 -16.96 3.92 0 0 6.69 7.7 0 0 -6.69 3.92 0zm12.23 17.25c-1.76,0 -3.35,-0.38 -4.76,-1.14 -1.41,-0.76 -2.52,-1.8 -3.32,-3.14 -0.8,-1.33 -1.2,-2.83 -1.2,-4.49 0,-1.66 0.4,-3.16 1.2,-4.49 0.8,-1.33 1.91,-2.38 3.32,-3.14 1.41,-0.76 3,-1.14 4.76,-1.14 1.76,0 3.34,0.38 4.75,1.14 1.41,0.76 2.51,1.8 3.32,3.14 0.81,1.33 1.21,2.83 1.21,4.49 0,1.66 -0.4,3.16 -1.21,4.49 -0.81,1.33 -1.91,2.38 -3.32,3.14 -1.4,0.76 -2.99,1.14 -4.75,1.14zm0 -3.34c1,0 1.91,-0.23 2.71,-0.69 0.81,-0.46 1.44,-1.1 1.9,-1.93 0.46,-0.82 0.69,-1.76 0.69,-2.81 0,-1.05 -0.23,-1.99 -0.69,-2.81 -0.46,-0.82 -1.09,-1.47 -1.9,-1.93 -0.81,-0.46 -1.71,-0.69 -2.71,-0.69 -1,0 -1.91,0.23 -2.71,0.69 -0.81,0.46 -1.44,1.1 -1.9,1.93 -0.46,0.82 -0.69,1.76 -0.69,2.81 0,1.05 0.23,1.99 0.69,2.81 0.46,0.82 1.09,1.47 1.9,1.93 0.81,0.46 1.71,0.69 2.71,0.69zm20.35 3.34c-1.73,0 -3.29,-0.38 -4.69,-1.13 -1.4,-0.75 -2.5,-1.79 -3.3,-3.13 -0.8,-1.33 -1.2,-2.84 -1.2,-4.52 0,-1.68 0.4,-3.19 1.2,-4.52 0.8,-1.33 1.9,-2.37 3.3,-3.13 1.4,-0.75 2.97,-1.13 4.71,-1.13 1.47,0 2.8,0.26 3.98,0.78 1.19,0.52 2.18,1.26 2.99,2.23l-2.52 2.33c-1.15,-1.33 -2.57,-1.99 -4.26,-1.99 -1.05,0 -1.99,0.23 -2.81,0.69 -0.82,0.46 -1.47,1.1 -1.93,1.93 -0.46,0.82 -0.69,1.76 -0.69,2.81 0,1.05 0.23,1.99 0.69,2.81 0.46,0.82 1.1,1.47 1.93,1.93 0.82,0.46 1.76,0.69 2.81,0.69 1.7,0 3.12,-0.67 4.26,-2.01l2.52 2.33c-0.81,0.98 -1.81,1.74 -3,2.25 -1.2,0.52 -2.53,0.78 -4,0.78zm17.49 0c-1.76,0 -3.35,-0.38 -4.76,-1.14 -1.41,-0.76 -2.52,-1.8 -3.32,-3.14 -0.8,-1.33 -1.2,-2.83 -1.2,-4.49 0,-1.66 0.4,-3.16 1.2,-4.49 0.8,-1.33 1.91,-2.38 3.32,-3.14 1.41,-0.76 3,-1.14 4.76,-1.14 1.76,0 3.34,0.38 4.75,1.14 1.41,0.76 2.51,1.8 3.32,3.14 0.81,1.33 1.21,2.83 1.21,4.49 0,1.66 -0.4,3.16 -1.21,4.49 -0.81,1.33 -1.91,2.38 -3.32,3.14 -1.4,0.76 -2.99,1.14 -4.75,1.14zm0 -3.34c1,0 1.91,-0.23 2.71,-0.69 0.81,-0.46 1.44,-1.1 1.9,-1.93 0.46,-0.82 0.69,-1.76 0.69,-2.81 0,-1.05 -0.23,-1.99 -0.69,-2.81 -0.46,-0.82 -1.09,-1.47 -1.9,-1.93 -0.81,-0.46 -1.71,-0.69 -2.71,-0.69 -1,0 -1.91,0.23 -2.71,0.69 -0.81,0.46 -1.44,1.1 -1.9,1.93 -0.46,0.82 -0.69,1.76 -0.69,2.81 0,1.05 0.23,1.99 0.69,2.81 0.46,0.82 1.09,1.47 1.9,1.93 0.81,0.46 1.71,0.69 2.71,0.69zm27.79 -13.91l0 16.96 -3.22 0 -8.45 -10.3 0 10.3 -3.88 0 0 -16.96 3.25 0 8.43 10.3 0 -10.3 3.88 0zm7.53 3.2l-5.43 0 0 -3.2 14.78 0 0 3.2 -5.43 0 0 13.76 -3.92 0 0 -13.76zm21.78 10.13l-7.87 0 -1.5 3.63 -4.02 0 7.56 -16.96 3.88 0 7.58 16.96 -4.12 0 -1.5 -3.63zm-1.23 -2.98l-2.69 -6.49 -2.69 6.49 5.38 0zm24.18 -10.34l0 16.96 -3.22 0 -8.45 -10.3 0 10.3 -3.88 0 0 -16.96 3.25 0 8.43 10.3 0 -10.3 3.88 0zm12.23 17.25c-1.76,0 -3.35,-0.38 -4.76,-1.14 -1.41,-0.76 -2.52,-1.8 -3.32,-3.14 -0.8,-1.33 -1.2,-2.83 -1.2,-4.49 0,-1.66 0.4,-3.16 1.2,-4.49 0.8,-1.33 1.91,-2.38 3.32,-3.14 1.41,-0.76 3,-1.14 4.76,-1.14 1.76,0 3.34,0.38 4.75,1.14 1.41,0.76 2.51,1.8 3.32,3.14 0.81,1.33 1.21,2.83 1.21,4.49 0,1.66 -0.4,3.16 -1.21,4.49 -0.81,1.33 -1.91,2.38 -3.32,3.14 -1.4,0.76 -2.99,1.14 -4.75,1.14zm0 -3.34c1,0 1.91,-0.23 2.71,-0.69 0.81,-0.46 1.44,-1.1 1.9,-1.93 0.46,-0.82 0.69,-1.76 0.69,-2.81 0,-1.05 -0.23,-1.99 -0.69,-2.81 -0.46,-0.82 -1.09,-1.47 -1.9,-1.93 -0.81,-0.46 -1.71,-0.69 -2.71,-0.69 -1,0 -1.91,0.23 -2.71,0.69 -0.81,0.46 -1.44,1.1 -1.9,1.93 -0.46,0.82 -0.69,1.76 -0.69,2.81 0,1.05 0.23,1.99 0.69,2.81 0.46,0.82 1.09,1.47 1.9,1.93 0.81,0.46 1.71,0.69 2.71,0.69z"/>
  <path class="fil0" d="M46.77 52.92l-3.3 -4.64c-0.37,0.04 -0.76,0.06 -1.15,0.06l-3.88 0 0 4.58 -1.53 0 0 -14.43 5.4 0c1.84,0 3.28,0.44 4.33,1.32 1.04,0.88 1.57,2.09 1.57,3.63 0,1.13 -0.28,2.08 -0.85,2.86 -0.57,0.78 -1.39,1.34 -2.44,1.68l3.53 4.95 -1.67 0zm-4.49 -5.88c1.43,0 2.52,-0.32 3.28,-0.95 0.76,-0.63 1.13,-1.52 1.13,-2.66 0,-1.17 -0.38,-2.07 -1.13,-2.69 -0.76,-0.63 -1.85,-0.94 -3.28,-0.94l-3.84 0 0 7.24 3.84 0zm19.75 4.56l0 1.32 -10.21 0 0 -14.43 9.9 0 0 1.32 -8.37 0 0 5.13 7.46 0 0 1.3 -7.46 0 0 5.36 8.68 0zm7.57 1.44c-1.07,0 -2.1,-0.17 -3.08,-0.52 -0.98,-0.34 -1.74,-0.8 -2.28,-1.36l0.6 -1.18c0.52,0.52 1.22,0.95 2.08,1.27 0.87,0.32 1.76,0.49 2.68,0.49 1.29,0 2.26,-0.24 2.91,-0.71 0.65,-0.47 0.97,-1.09 0.97,-1.85 0,-0.58 -0.18,-1.04 -0.53,-1.38 -0.35,-0.34 -0.78,-0.61 -1.29,-0.79 -0.51,-0.19 -1.22,-0.39 -2.12,-0.61 -1.09,-0.27 -1.95,-0.54 -2.6,-0.79 -0.65,-0.25 -1.2,-0.64 -1.66,-1.17 -0.46,-0.52 -0.69,-1.23 -0.69,-2.12 0,-0.73 0.19,-1.39 0.58,-1.99 0.39,-0.6 0.98,-1.08 1.77,-1.43 0.8,-0.36 1.79,-0.54 2.97,-0.54 0.82,0 1.63,0.11 2.42,0.34 0.79,0.23 1.47,0.54 2.05,0.94l-0.52 1.22c-0.6,-0.4 -1.25,-0.7 -1.94,-0.9 -0.69,-0.2 -1.36,-0.3 -2.02,-0.3 -1.27,0 -2.22,0.24 -2.86,0.73 -0.64,0.49 -0.96,1.12 -0.96,1.89 0,0.58 0.18,1.04 0.53,1.39 0.35,0.35 0.79,0.62 1.32,0.81 0.53,0.19 1.24,0.39 2.13,0.61 1.06,0.26 1.91,0.52 2.57,0.77 0.65,0.25 1.21,0.64 1.66,1.15 0.45,0.52 0.68,1.21 0.68,2.09 0,0.73 -0.2,1.39 -0.59,1.99 -0.39,0.6 -0.99,1.07 -1.8,1.42 -0.81,0.35 -1.81,0.53 -2.99,0.53zm11.3 -13.24l-5.07 0 0 -1.32 11.67 0 0 1.32 -5.07 0 0 13.11 -1.53 0 0 -13.11zm17.36 9.26l-8.04 0 -1.73 3.86 -1.59 0 6.6 -14.43 1.51 0 6.6 14.43 -1.61 0 -1.73 -3.86zm-0.56 -1.24l-3.46 -7.75 -3.46 7.75 6.93 0zm11.8 5.22c-1.87,0 -3.33,-0.54 -4.37,-1.61 -1.04,-1.07 -1.57,-2.63 -1.57,-4.68l0 -8.27 1.53 0 0 8.21c0,1.68 0.38,2.93 1.13,3.75 0.76,0.82 1.85,1.24 3.28,1.24 1.44,0 2.54,-0.41 3.3,-1.24 0.76,-0.83 1.13,-2.08 1.13,-3.75l0 -8.21 1.48 0 0 8.27c0,2.05 -0.52,3.61 -1.56,4.68 -1.04,1.07 -2.49,1.61 -4.36,1.61zm20.37 -0.12l-3.3 -4.64c-0.37,0.04 -0.76,0.06 -1.15,0.06l-3.88 0 0 4.58 -1.53 0 0 -14.43 5.4 0c1.84,0 3.28,0.44 4.33,1.32 1.04,0.88 1.57,2.09 1.57,3.63 0,1.13 -0.28,2.08 -0.85,2.86 -0.57,0.78 -1.39,1.34 -2.44,1.68l3.53 4.95 -1.67 0zm-4.49 -5.88c1.43,0 2.52,-0.32 3.28,-0.95 0.76,-0.63 1.13,-1.52 1.13,-2.66 0,-1.17 -0.38,-2.07 -1.13,-2.69 -0.76,-0.63 -1.85,-0.94 -3.28,-0.94l-3.84 0 0 7.24 3.84 0zm18.6 2.02l-8.04 0 -1.73 3.86 -1.59 0 6.6 -14.43 1.51 0 6.6 14.43 -1.61 0 -1.73 -3.86zm-0.56 -1.24l-3.46 -7.75 -3.46 7.75 6.93 0zm18.35 -9.34l0 14.43 -1.26 0 -9.28 -11.71 0 11.71 -1.53 0 0 -14.43 1.26 0 9.3 11.71 0 -11.71 1.51 0zm7.51 1.32l-5.07 0 0 -1.32 11.67 0 0 1.32 -5.07 0 0 13.11 -1.53 0 0 -13.11zm19.24 11.8l0 1.32 -10.21 0 0 -14.43 9.9 0 0 1.32 -8.37 0 0 5.13 7.46 0 0 1.3 -7.46 0 0 5.36 8.68 0z"/>
  <path class="fil0" d="M78.45 0.06l2.94 0c0.76,0 1.44,0.15 2.02,0.46 0.58,0.31 1.04,0.73 1.36,1.28 0.32,0.55 0.48,1.17 0.48,1.87 0,0.7 -0.16,1.33 -0.48,1.87 -0.32,0.55 -0.78,0.97 -1.36,1.28 -0.58,0.31 -1.26,0.46 -2.02,0.46l-2.94 0 0 -7.22zm2.9 6.56c0.63,0 1.19,-0.12 1.66,-0.38 0.47,-0.25 0.84,-0.6 1.1,-1.04 0.26,-0.44 0.39,-0.95 0.39,-1.53 0,-0.58 -0.13,-1.09 -0.39,-1.53 -0.26,-0.44 -0.63,-0.79 -1.1,-1.04 -0.47,-0.25 -1.03,-0.38 -1.66,-0.38l-2.13 0 0 5.9 2.13 0zm10.72 0l0 0.66 -5.1 0 0 -7.22 4.95 0 0 0.66 -4.19 0 0 2.57 3.73 0 0 0.65 -3.73 0 0 2.68 4.34 0zm3.78 0.72c-0.54,0 -1.05,-0.08 -1.54,-0.26 -0.49,-0.17 -0.87,-0.4 -1.14,-0.68l0.3 -0.59c0.26,0.26 0.61,0.47 1.04,0.63 0.43,0.16 0.88,0.24 1.34,0.24 0.65,0 1.13,-0.12 1.45,-0.36 0.32,-0.24 0.49,-0.54 0.49,-0.92 0,-0.29 -0.09,-0.52 -0.26,-0.69 -0.18,-0.17 -0.39,-0.3 -0.64,-0.4 -0.25,-0.09 -0.61,-0.19 -1.06,-0.3 -0.54,-0.14 -0.98,-0.27 -1.3,-0.4 -0.32,-0.13 -0.6,-0.32 -0.83,-0.58 -0.23,-0.26 -0.34,-0.62 -0.34,-1.06 0,-0.36 0.09,-0.7 0.29,-1 0.19,-0.3 0.49,-0.54 0.89,-0.72 0.4,-0.18 0.89,-0.27 1.48,-0.27 0.41,0 0.82,0.06 1.21,0.17 0.4,0.11 0.74,0.27 1.03,0.47l-0.26 0.61c-0.3,-0.2 -0.63,-0.35 -0.97,-0.45 -0.34,-0.1 -0.68,-0.15 -1.01,-0.15 -0.63,0 -1.11,0.12 -1.43,0.37 -0.32,0.24 -0.48,0.56 -0.48,0.94 0,0.29 0.09,0.52 0.26,0.7 0.18,0.18 0.39,0.31 0.66,0.4 0.26,0.09 0.62,0.19 1.07,0.3 0.53,0.13 0.96,0.26 1.28,0.39 0.33,0.13 0.6,0.32 0.83,0.58 0.23,0.26 0.34,0.61 0.34,1.05 0,0.36 -0.1,0.7 -0.29,1 -0.2,0.3 -0.5,0.53 -0.9,0.71 -0.4,0.18 -0.9,0.26 -1.49,0.26zm4.35 -7.28l2.94 0c0.76,0 1.44,0.15 2.02,0.46 0.58,0.31 1.04,0.73 1.36,1.28 0.32,0.55 0.48,1.17 0.48,1.87 0,0.7 -0.16,1.33 -0.48,1.87 -0.32,0.55 -0.78,0.97 -1.36,1.28 -0.58,0.31 -1.26,0.46 -2.02,0.46l-2.94 0 0 -7.22zm2.9 6.56c0.63,0 1.19,-0.12 1.66,-0.38 0.47,-0.25 0.84,-0.6 1.1,-1.04 0.26,-0.44 0.39,-0.95 0.39,-1.53 0,-0.58 -0.13,-1.09 -0.39,-1.53 -0.26,-0.44 -0.63,-0.79 -1.1,-1.04 -0.47,-0.25 -1.03,-0.38 -1.66,-0.38l-2.13 0 0 5.9 2.13 0zm10.72 0l0 0.66 -5.1 0 0 -7.22 4.95 0 0 0.66 -4.19 0 0 2.57 3.73 0 0 0.65 -3.73 0 0 2.68 4.34 0zm5.86 -6.56l0 7.22 -0.74 0 0 -6.56 -1.7 0 0 -0.66 2.44 0zm3.97 -0.06c0.96,0 1.69,0.32 2.2,0.94 0.51,0.63 0.76,1.52 0.76,2.67 0,0.8 -0.14,1.48 -0.41,2.04 -0.27,0.56 -0.66,0.98 -1.15,1.26 -0.5,0.28 -1.07,0.43 -1.73,0.43 -0.71,0 -1.28,-0.13 -1.71,-0.39l0.3 -0.6c0.34,0.23 0.81,0.34 1.4,0.34 0.8,0 1.42,-0.25 1.88,-0.76 0.45,-0.51 0.68,-1.24 0.68,-2.2 0,-0.18 -0.01,-0.38 -0.03,-0.59 -0.18,0.39 -0.46,0.7 -0.86,0.91 -0.39,0.22 -0.84,0.32 -1.35,0.32 -0.47,0 -0.9,-0.09 -1.26,-0.27 -0.37,-0.18 -0.65,-0.43 -0.86,-0.76 -0.21,-0.33 -0.31,-0.71 -0.31,-1.14 0,-0.44 0.11,-0.83 0.32,-1.17 0.21,-0.34 0.51,-0.6 0.88,-0.78 0.37,-0.18 0.79,-0.27 1.26,-0.27zm0.08 3.75c0.36,0 0.69,-0.07 0.96,-0.21 0.28,-0.14 0.5,-0.33 0.65,-0.57 0.16,-0.24 0.24,-0.51 0.24,-0.81 0,-0.27 -0.07,-0.53 -0.22,-0.76 -0.15,-0.23 -0.37,-0.42 -0.65,-0.57 -0.29,-0.14 -0.63,-0.22 -1.03,-0.22 -0.52,0 -0.95,0.14 -1.27,0.43 -0.33,0.28 -0.49,0.66 -0.49,1.14 0,0.47 0.16,0.85 0.49,1.14 0.33,0.28 0.77,0.42 1.33,0.42zm8.96 -3.69l0 0.53 -3.02 6.69 -0.8 0 2.97 -6.56 -3.71 0 0 1.35 -0.73 0 0 -2.01 5.3 0zm2.68 2.96c1.04,0 1.81,0.19 2.28,0.56 0.48,0.38 0.72,0.9 0.72,1.57 0,0.42 -0.1,0.79 -0.3,1.13 -0.2,0.33 -0.49,0.59 -0.88,0.78 -0.39,0.19 -0.87,0.28 -1.44,0.28 -0.52,0 -1.01,-0.08 -1.47,-0.25 -0.46,-0.17 -0.84,-0.39 -1.12,-0.68l0.36 -0.59c0.24,0.25 0.56,0.45 0.95,0.6 0.39,0.15 0.82,0.23 1.27,0.23 0.6,0 1.06,-0.13 1.39,-0.4 0.33,-0.27 0.49,-0.63 0.49,-1.07 0,-0.5 -0.18,-0.87 -0.55,-1.12 -0.37,-0.26 -0.99,-0.38 -1.86,-0.38l-1.54 0 0.37 -3.62 3.95 0 0 0.66 -3.3 0 -0.25 2.3 0.93 0z"/>
  <g id="_2334709100288">
   <path class="fil0" d="M21.77 45.85c-0.21,0.44 -0.16,0.89 -0.08,1.35 0.04,0.23 0.04,0.45 -0.01,0.68 -0.13,0.65 -0.05,1.3 0.08,1.94 0.11,0.53 0.21,1.07 0.43,1.57 0.04,0.09 0.11,0.14 0.17,0.21 0.12,0.14 0.22,0.28 0.22,0.51 -0.21,-0.08 -0.26,-0.31 -0.45,-0.34 -0.01,0.02 -0.03,0.04 -0.02,0.05 0.08,0.16 0.27,0.35 0.18,0.49 -0.11,0.18 -0.38,0.11 -0.58,0.1 -0.54,-0.04 -0.62,-0.12 -0.67,-0.66 -0.01,-0.12 -0.03,-0.24 -0.11,-0.32 -0.31,-0.33 -0.31,-0.71 -0.27,-1.13 0.05,-0.49 0.06,-0.99 0.09,-1.48 0.02,-0.29 -0.01,-0.57 -0.12,-0.84 -0.12,-0.28 -0.05,-0.59 -0.06,-0.89 -0,-0.03 0.01,-0.08 0.04,-0.09 0.49,-0.28 0.73,-0.82 1.18,-1.16zm-11.9 -3.63c-0.05,0.87 0.3,1.64 0.64,2.4 0.15,0.33 0.38,0.59 0.6,0.88 0.38,0.49 0.74,1 0.71,1.67 -0.01,0.11 0.03,0.24 -0.09,0.32 -0.73,0.47 -0.57,1.22 -0.58,1.9 -0,0.63 0.36,1.16 0.58,1.72 0.07,0.18 0.33,0.28 0.49,0.42 0.13,0.11 0.26,0.23 0.37,0.36 0.13,0.17 0.02,0.44 -0.19,0.47 -0.32,0.04 -0.64,-0.02 -0.95,-0.13 -0.05,-0.02 -0.12,-0.07 -0.12,-0.11 -0.05,-0.45 -0.58,-0.53 -0.69,-0.93 -0.11,-0.39 -0.21,-0.78 -0.32,-1.16 -0.16,-0.59 -0.31,-1.17 -0.47,-1.76 -0.07,-0.27 -0.07,-0.51 0.15,-0.73 0.13,-0.13 0.24,-0.3 0.22,-0.49 -0.05,-0.61 0.07,-1.24 -0.27,-1.8 -0.28,-0.45 -0.22,-0.98 -0.27,-1.47 -0.03,-0.29 0.01,-0.59 -0.02,-0.89 -0.03,-0.25 0.06,-0.45 0.2,-0.65zm-1.1 -0.83c0.22,-0.38 0.63,-0.56 0.93,-0.85 0.07,-0.07 0.18,-0.12 0.24,-0.2 0.52,-0.84 1.34,-1.06 2.25,-1.1 0.72,-0.02 1.43,0.01 2.12,0.2 0.3,0.08 0.61,0.13 0.92,0.07 0.78,-0.13 1.59,-0 2.37,-0.2 0.06,-0.02 0.14,-0.02 0.2,-0.01 1.06,0.2 2.11,-0.03 3.17,-0.01 0.17,0 0.36,-0.03 0.52,0.02 0.8,0.23 1.23,-0.27 1.6,-0.83 0.15,-0.23 0.22,-0.31 0.47,-0.1 0.28,0.24 0.63,0.37 1.12,0.34 -0.69,-0.14 -1.19,-0.4 -1.55,-0.9 -0.3,-0.43 -0.22,-0.6 0.29,-0.67 0.47,-0.06 0.93,-0.02 1.42,0.17 -0.13,-0.21 -0.31,-0.21 -0.5,-0.29 0.21,-0.21 0.46,-0.26 0.72,-0.29 0.13,-0.01 0.28,0.03 0.4,-0.07l1.1 0c0.17,0.1 0.33,0.2 0.5,0.29 0.31,0.18 0.54,0.41 0.68,0.75 0.11,0.26 0.24,0.52 0.44,0.73 0.17,0.18 0.24,0.41 0.31,0.65 0.18,0.58 0.32,1.17 0.57,1.73 0.12,0.27 0.04,0.46 -0.19,0.71 -0.29,0.32 -0.5,0.44 -0.85,0.17 -0.09,-0.07 -0.17,-0.15 -0.29,-0.27 0.1,0.29 0.3,0.39 0.52,0.48 0.05,0.02 0.13,0.01 0.12,0.09 -0.01,0.05 -0.06,0.09 -0.1,0.12 -0.33,0.21 -0.7,-0.03 -0.83,-0.53 -0.16,0.35 -1.2,-0.11 -1.89,-0.85 -0.01,0.19 0.09,0.33 0.18,0.43 0.2,0.22 0.15,0.41 -0.03,0.6 -0.09,0.1 -0.19,0.2 -0.3,0.29 -0.38,0.31 -0.7,0.67 -0.94,1.09 -0.11,0.19 -0.23,0.38 -0.39,0.53 -0.28,0.28 -0.45,0.61 -0.55,0.98 -0.06,0.2 -0.14,0.39 -0.25,0.56 -0.23,0.34 -0.53,0.53 -0.96,0.5 -0.19,-0.01 -0.38,-0 -0.59,-0 0.02,-0.22 0.23,-0.35 0.17,-0.56 -0.11,0.01 -0.13,0.1 -0.14,0.15 -0.18,0.6 -0.64,0.97 -1.12,1.31 -0.15,0.11 -0.26,0.22 -0.23,0.39 0.14,0.84 -0.1,1.66 -0.08,2.5 0.01,0.57 0.17,1.11 0.24,1.66 0.04,0.33 0.17,0.72 0.45,1.01 0.09,0.1 0.17,0.24 0.13,0.42 -0.2,-0.05 -0.22,-0.28 -0.4,-0.32 -0.01,0.02 -0.04,0.04 -0.03,0.05 0.25,0.57 0.23,0.61 -0.39,0.56 -0.56,-0.04 -0.62,-0.1 -0.69,-0.68 -0.01,-0.09 -0.01,-0.2 -0.07,-0.26 -0.42,-0.47 -0.27,-1.01 -0.23,-1.55 0.03,-0.4 0.08,-0.8 0.11,-1.2 0.02,-0.3 0.02,-0.6 -0.14,-0.87 -0.04,-0.06 -0.07,-0.14 -0.06,-0.2 0.2,-0.83 -0.32,-1.53 -0.44,-2.3 -0.01,-0.04 -0.01,-0.07 -0.03,-0.1 -0.31,-0.53 -0.32,-1.03 0.1,-1.51 0.11,-0.12 0.12,-0.32 0.08,-0.59 -0.15,0.53 -0.55,0.85 -0.59,1.33 -0.03,0.49 0.32,0.88 0.43,1.36 -0.52,-0.04 -0.98,0.16 -1.54,0.3 0.26,-0.23 0.48,-0.38 0.61,-0.63 -0.84,0.69 -1.83,0.84 -2.86,0.82 -0.02,0 -0.05,0 -0.07,-0 -0.39,-0.09 -0.71,-0.11 -0.82,0.44 -0.06,0.3 -0.41,0.48 -0.6,0.74 -0.09,0.12 -0.17,0.24 -0.17,0.4 0.03,0.88 0.17,1.72 0.81,2.39 0.18,0.19 0.26,0.4 0.24,0.66 -0.02,0.17 0.05,0.27 0.19,0.37 0.26,0.18 0.52,0.39 0.72,0.64 0.15,0.19 0.02,0.49 -0.22,0.51 -0.33,0.04 -0.67,0.01 -0.99,-0.09 -0.07,-0.02 -0.18,-0.08 -0.19,-0.13 -0.08,-0.37 -0.38,-0.54 -0.63,-0.76 -0.12,-0.11 -0.19,-0.26 -0.22,-0.42 -0.16,-0.89 -0.61,-1.65 -1.01,-2.44 -0.09,-0.17 -0.17,-0.35 -0.25,-0.53 -0.05,-0.11 -0.08,-0.24 -0.01,-0.33 0.53,-0.74 0.19,-1.47 -0.05,-2.19 -0.12,-0.36 -0.42,-0.63 -0.64,-0.94 -0.74,-1.05 -1.23,-2.17 -1.06,-3.5 0,-0.02 -0,-0.05 -0.01,-0.07 -0.41,0.67 -0.57,0.65 -0.47,1.66 0.02,0.23 0.01,0.46 -0.26,0.54 -0.28,0.08 -0.47,-0.06 -0.57,-0.32 -0.11,-0.27 -0.33,-0.49 -0.39,-0.8 -0.1,-0.53 0.09,-0.93 0.46,-1.28 0.03,0.14 -0.04,0.25 -0.11,0.35 -0.07,0.12 -0.2,0.2 -0.22,0.34 -0.05,0.51 0.28,0.91 0.4,1.37 0.01,0.05 0.1,0.09 0.18,0.05 0,-0.11 -0.25,-0.17 -0.05,-0.31 -0.12,-0.08 0.03,-0.33 -0.16,-0.33 -0.23,-0 -0.18,-0.08 -0.13,-0.23 0.09,-0.28 -0.01,-0.62 0.28,-0.84 0,-0 -0,-0.02 -0.01,-0.03 -0.11,-0.2 0.05,-0.29 0.16,-0.39 0.07,-0.07 0.22,-0.08 0.21,-0.24 -0.23,0.02 -0.39,0.15 -0.57,0.26zm4.59 -0.94c-0.06,-0.18 -0.18,-0.29 -0.36,-0.32 -0.26,-0.05 -0.11,-0.28 -0.08,-0.33 0.11,-0.21 0.13,-0.24 -0.1,-0.24 -0.56,-0.01 -1.13,-0.18 -1.66,0.15 -0.06,0.04 -0.15,0.03 -0.23,0.03 -0.36,0.01 -0.53,0.18 -0.58,0.56 0.11,0.06 0.13,-0.12 0.23,-0.08 0.33,0.1 0.32,0.09 0.51,-0.21 0.07,-0.11 0.31,-0.18 0.32,-0.09 0.04,0.36 0.33,0.23 0.51,0.31 0.05,0.02 0.15,0.03 0.17,-0.06 0.02,-0.08 -0.05,-0.12 -0.11,-0.15 -0.05,-0.02 -0.13,0.02 -0.17,-0.05 0.25,-0.29 0.53,-0.32 0.79,-0.08 0.12,0.1 0.15,0.26 0.22,0.39 0.03,0.05 0.07,0.18 0.11,0.12 0.21,-0.26 0.26,0.11 0.43,0.07zm0.22 1.36c0.21,0.68 0.55,1.31 0.74,1.99 0.2,0.71 0.21,1.42 0.05,2.14 0.78,-1.57 0.02,-2.87 -0.79,-4.14zm9.93 -4.37c0.3,0.22 0.52,0.4 0.83,0.39 0.17,-0.01 0.25,0.09 0.2,0.23 -0.13,0.42 0.14,0.36 0.38,0.34 0.11,-0.01 0.25,-0.02 0.29,-0.14 0.04,-0.11 -0.07,-0.18 -0.14,-0.26 -0.4,-0.43 -0.9,-0.6 -1.57,-0.57zm-8.17 2.52c-0.39,-0.21 -1.74,-0.26 -2.06,-0.05 0.37,-0.03 0.67,0.1 0.99,0.12 0.17,0.01 0.39,0.3 0.52,-0.08 0.01,-0.03 0.15,-0.02 0.23,-0.02 0.1,0 0.19,0.08 0.33,0.03zm4.64 -0.14c-0.38,0.05 -0.75,-0.02 -1.1,-0.12 -0.41,-0.12 -0.82,-0.07 -1.11,0.17 0.41,-0.11 0.8,-0.25 1.13,-0.02 0.18,0.12 0.52,-0.13 0.56,0.25 0.03,-0.01 0.06,-0.01 0.09,-0.03 0.14,-0.08 0.29,-0.17 0.43,-0.25zm3.08 2.35c0.12,0.22 0.12,0.47 0.16,0.71 0.01,0.08 -0,0.18 -0.09,0.2 -0.12,0.03 -0.11,-0.09 -0.12,-0.16 -0.02,-0.09 -0.04,-0.19 -0.14,-0.21 -0.06,-0.01 -0.09,0.05 -0.08,0.08 0.06,0.11 -0.22,0.19 -0.02,0.3 0.14,0.07 0.11,0.26 0.21,0.35 0.43,-0.42 0.46,-0.85 0.08,-1.29zm0.02 -1.44c-0.09,-0.54 -0.6,-1.1 -0.97,-1.11 0.13,0.12 0.38,0.24 0.33,0.36 -0.14,0.38 0.28,0.34 0.31,0.57 0.06,-0.19 -0.14,-0.27 -0.13,-0.47 0.22,0.17 0.28,0.42 0.46,0.66zm4.72 -0.75c0.13,-0.61 -0.07,-1.08 -0.54,-1.29 0.04,0.15 -0.07,0.34 0.22,0.34 0.12,0 0.17,0.19 0.24,0.32 0.11,0.21 0.05,0.43 0.08,0.64zm-5.47 4.24c0.42,-0.33 0.48,-0.62 0.24,-0.99 -0.08,0.31 -0.15,0.63 -0.24,0.99zm3.24 -4.7c-0.29,0.38 -0.26,0.81 0.06,1.15 -0.13,-0.38 -0.23,-0.75 -0.06,-1.15zm-13.16 9.34c0.37,-0.23 0.04,-0.59 0.13,-0.88 -0.21,0.26 -0.02,0.59 -0.13,0.88zm11.06 -7.15c0.11,0.31 -0.12,0.53 -0.02,0.8 0.28,-0.35 0.29,-0.45 0.02,-0.8zm-0.69 -2.39c0.34,-0.2 0.43,-0.47 0.44,-0.78 -0.18,0.22 -0.32,0.46 -0.44,0.78zm3.57 -2.38c-0.22,-0.05 -0.43,-0.22 -0.69,-0.09 0.23,0.17 0.45,0.2 0.69,0.09zm-16.46 4.13c0.13,-0.07 0.12,-0.21 0.21,-0.31 0.07,-0.09 0.33,-0.13 0.19,-0.27 -0.11,-0.1 -0.23,0.12 -0.32,0.23 -0.08,0.08 -0.13,0.19 -0.08,0.35z"/>
   <path class="fil0" d="M203.66 45.85c0.21,0.44 0.16,0.89 0.08,1.35 -0.04,0.23 -0.04,0.45 0.01,0.68 0.13,0.65 0.05,1.3 -0.08,1.94 -0.11,0.53 -0.21,1.07 -0.43,1.57 -0.04,0.09 -0.11,0.14 -0.17,0.21 -0.12,0.14 -0.22,0.28 -0.22,0.51 0.21,-0.08 0.26,-0.31 0.45,-0.34 0.01,0.02 0.03,0.04 0.02,0.05 -0.08,0.16 -0.27,0.35 -0.18,0.49 0.11,0.18 0.38,0.11 0.58,0.1 0.54,-0.04 0.62,-0.12 0.67,-0.66 0.01,-0.12 0.03,-0.24 0.11,-0.32 0.31,-0.33 0.31,-0.71 0.27,-1.13 -0.05,-0.49 -0.06,-0.99 -0.09,-1.48 -0.02,-0.29 0.01,-0.57 0.12,-0.84 0.12,-0.28 0.05,-0.59 0.06,-0.89 0,-0.03 -0.01,-0.08 -0.04,-0.09 -0.49,-0.28 -0.73,-0.82 -1.18,-1.16zm11.9 -3.63c0.04,0.87 -0.3,1.64 -0.64,2.4 -0.15,0.33 -0.39,0.59 -0.6,0.88 -0.38,0.49 -0.74,1 -0.71,1.67 0.01,0.11 -0.03,0.24 0.09,0.32 0.73,0.47 0.57,1.22 0.58,1.9 0.01,0.63 -0.36,1.16 -0.58,1.72 -0.07,0.18 -0.33,0.28 -0.49,0.42 -0.13,0.11 -0.26,0.23 -0.37,0.36 -0.13,0.17 -0.02,0.44 0.19,0.47 0.32,0.04 0.64,-0.02 0.95,-0.13 0.05,-0.02 0.12,-0.07 0.12,-0.11 0.05,-0.45 0.58,-0.53 0.69,-0.93 0.11,-0.39 0.21,-0.78 0.32,-1.16 0.16,-0.59 0.31,-1.17 0.47,-1.76 0.07,-0.27 0.07,-0.51 -0.15,-0.73 -0.13,-0.13 -0.24,-0.3 -0.22,-0.49 0.05,-0.61 -0.07,-1.24 0.27,-1.8 0.28,-0.45 0.22,-0.98 0.27,-1.47 0.03,-0.29 -0.01,-0.59 0.02,-0.89 0.03,-0.25 -0.06,-0.45 -0.2,-0.65zm1.1 -0.83c-0.22,-0.38 -0.63,-0.56 -0.93,-0.85 -0.07,-0.07 -0.19,-0.12 -0.24,-0.2 -0.52,-0.84 -1.34,-1.06 -2.25,-1.1 -0.72,-0.02 -1.43,0.01 -2.12,0.2 -0.3,0.08 -0.61,0.13 -0.92,0.07 -0.78,-0.13 -1.59,-0 -2.37,-0.2 -0.07,-0.02 -0.14,-0.02 -0.21,-0.01 -1.06,0.2 -2.11,-0.03 -3.17,-0.01 -0.17,0 -0.36,-0.03 -0.52,0.02 -0.8,0.23 -1.23,-0.27 -1.6,-0.83 -0.15,-0.23 -0.22,-0.31 -0.47,-0.1 -0.28,0.24 -0.63,0.37 -1.11,0.34 0.68,-0.14 1.19,-0.4 1.55,-0.9 0.3,-0.43 0.22,-0.6 -0.29,-0.67 -0.47,-0.06 -0.93,-0.02 -1.42,0.17 0.13,-0.21 0.31,-0.21 0.5,-0.29 -0.21,-0.21 -0.46,-0.26 -0.72,-0.29 -0.13,-0.01 -0.28,0.03 -0.4,-0.07l-1.1 0c-0.17,0.1 -0.33,0.2 -0.5,0.29 -0.31,0.18 -0.54,0.41 -0.68,0.75 -0.11,0.26 -0.24,0.52 -0.44,0.73 -0.17,0.18 -0.24,0.41 -0.31,0.65 -0.18,0.58 -0.32,1.17 -0.56,1.73 -0.12,0.27 -0.04,0.46 0.19,0.71 0.29,0.32 0.49,0.44 0.85,0.17 0.09,-0.07 0.17,-0.15 0.29,-0.27 -0.1,0.29 -0.3,0.39 -0.52,0.48 -0.05,0.02 -0.13,0.01 -0.12,0.09 0.01,0.05 0.06,0.09 0.1,0.12 0.33,0.21 0.7,-0.03 0.83,-0.53 0.16,0.35 1.2,-0.11 1.89,-0.85 0.01,0.19 -0.09,0.33 -0.18,0.43 -0.2,0.22 -0.15,0.41 0.03,0.6 0.09,0.1 0.19,0.2 0.3,0.29 0.38,0.31 0.7,0.67 0.94,1.09 0.11,0.19 0.23,0.38 0.39,0.53 0.28,0.28 0.45,0.61 0.55,0.98 0.06,0.2 0.14,0.39 0.25,0.56 0.23,0.34 0.53,0.53 0.96,0.5 0.19,-0.01 0.38,-0 0.58,-0 -0.02,-0.22 -0.23,-0.35 -0.17,-0.56 0.11,0.01 0.13,0.1 0.14,0.15 0.18,0.6 0.64,0.97 1.12,1.31 0.15,0.11 0.26,0.22 0.23,0.39 -0.14,0.84 0.1,1.66 0.08,2.5 -0.01,0.57 -0.18,1.11 -0.24,1.66 -0.04,0.33 -0.18,0.72 -0.45,1.01 -0.09,0.1 -0.17,0.24 -0.13,0.42 0.19,-0.05 0.22,-0.28 0.4,-0.32 0.01,0.02 0.04,0.04 0.03,0.05 -0.25,0.57 -0.23,0.61 0.39,0.56 0.56,-0.04 0.62,-0.1 0.69,-0.68 0.01,-0.09 0.01,-0.2 0.06,-0.26 0.42,-0.47 0.27,-1.01 0.23,-1.55 -0.03,-0.4 -0.08,-0.8 -0.11,-1.2 -0.02,-0.3 -0.03,-0.6 0.14,-0.87 0.04,-0.06 0.07,-0.14 0.06,-0.2 -0.2,-0.83 0.32,-1.53 0.44,-2.3 0.01,-0.04 0.01,-0.07 0.03,-0.1 0.31,-0.53 0.32,-1.03 -0.1,-1.51 -0.11,-0.12 -0.12,-0.32 -0.08,-0.59 0.15,0.53 0.55,0.85 0.59,1.33 0.03,0.49 -0.32,0.88 -0.43,1.36 0.52,-0.04 0.98,0.16 1.54,0.3 -0.26,-0.23 -0.48,-0.38 -0.61,-0.63 0.84,0.69 1.83,0.84 2.86,0.82 0.02,0 0.05,0 0.07,-0 0.39,-0.09 0.71,-0.11 0.82,0.44 0.06,0.3 0.41,0.48 0.6,0.74 0.09,0.12 0.17,0.24 0.17,0.4 -0.03,0.88 -0.17,1.72 -0.81,2.39 -0.18,0.19 -0.26,0.4 -0.24,0.66 0.02,0.17 -0.05,0.27 -0.19,0.37 -0.26,0.18 -0.52,0.39 -0.72,0.64 -0.15,0.19 -0.02,0.49 0.22,0.51 0.33,0.04 0.67,0.01 0.99,-0.09 0.07,-0.02 0.18,-0.08 0.19,-0.13 0.08,-0.37 0.38,-0.54 0.63,-0.76 0.12,-0.11 0.19,-0.26 0.22,-0.42 0.16,-0.89 0.61,-1.65 1,-2.44 0.09,-0.17 0.17,-0.35 0.25,-0.53 0.05,-0.11 0.08,-0.24 0.01,-0.33 -0.53,-0.74 -0.19,-1.47 0.05,-2.19 0.12,-0.36 0.42,-0.63 0.64,-0.94 0.74,-1.05 1.23,-2.17 1.06,-3.5 -0,-0.02 0,-0.05 0.01,-0.07 0.41,0.67 0.57,0.65 0.47,1.66 -0.02,0.23 -0.01,0.46 0.26,0.54 0.28,0.08 0.47,-0.06 0.57,-0.32 0.11,-0.27 0.33,-0.49 0.39,-0.8 0.1,-0.53 -0.09,-0.93 -0.46,-1.28 -0.03,0.14 0.04,0.25 0.11,0.35 0.07,0.12 0.2,0.2 0.22,0.34 0.05,0.51 -0.28,0.91 -0.4,1.37 -0.01,0.05 -0.1,0.09 -0.18,0.05 -0,-0.11 0.25,-0.17 0.05,-0.31 0.12,-0.08 -0.03,-0.33 0.16,-0.33 0.23,-0 0.18,-0.08 0.13,-0.23 -0.09,-0.28 0.01,-0.62 -0.28,-0.84 -0,-0 0,-0.02 0.01,-0.03 0.11,-0.2 -0.05,-0.29 -0.16,-0.39 -0.07,-0.07 -0.22,-0.08 -0.21,-0.24 0.23,0.02 0.39,0.15 0.56,0.26zm-4.59 -0.94c0.06,-0.18 0.18,-0.29 0.36,-0.32 0.26,-0.05 0.11,-0.28 0.08,-0.33 -0.11,-0.21 -0.13,-0.24 0.1,-0.24 0.56,-0.01 1.13,-0.18 1.66,0.15 0.06,0.04 0.15,0.03 0.23,0.03 0.36,0.01 0.53,0.18 0.58,0.56 -0.11,0.06 -0.13,-0.12 -0.23,-0.08 -0.33,0.1 -0.32,0.09 -0.51,-0.21 -0.07,-0.11 -0.31,-0.18 -0.32,-0.09 -0.04,0.36 -0.33,0.23 -0.51,0.31 -0.05,0.02 -0.15,0.03 -0.17,-0.06 -0.02,-0.08 0.05,-0.12 0.11,-0.15 0.05,-0.02 0.13,0.02 0.17,-0.05 -0.25,-0.29 -0.53,-0.32 -0.79,-0.08 -0.12,0.1 -0.15,0.26 -0.22,0.39 -0.03,0.05 -0.07,0.18 -0.11,0.12 -0.21,-0.26 -0.26,0.11 -0.43,0.07zm-0.22 1.36c-0.21,0.68 -0.55,1.31 -0.74,1.99 -0.2,0.71 -0.21,1.42 -0.05,2.14 -0.78,-1.57 -0.02,-2.87 0.79,-4.14zm-9.93 -4.37c-0.3,0.22 -0.52,0.4 -0.83,0.39 -0.17,-0.01 -0.25,0.09 -0.2,0.23 0.13,0.42 -0.14,0.36 -0.38,0.34 -0.11,-0.01 -0.25,-0.02 -0.29,-0.14 -0.04,-0.11 0.07,-0.18 0.14,-0.26 0.4,-0.43 0.9,-0.6 1.57,-0.57zm8.17 2.52c0.39,-0.21 1.74,-0.26 2.06,-0.05 -0.37,-0.03 -0.67,0.1 -0.99,0.12 -0.17,0.01 -0.39,0.3 -0.52,-0.08 -0.01,-0.03 -0.15,-0.02 -0.23,-0.02 -0.1,0 -0.19,0.08 -0.33,0.03zm-4.64 -0.14c0.38,0.05 0.75,-0.02 1.1,-0.12 0.41,-0.12 0.82,-0.07 1.11,0.17 -0.41,-0.11 -0.8,-0.25 -1.13,-0.02 -0.18,0.12 -0.52,-0.13 -0.56,0.25 -0.03,-0.01 -0.06,-0.01 -0.09,-0.03 -0.14,-0.08 -0.28,-0.17 -0.43,-0.25zm-3.08 2.35c-0.12,0.22 -0.12,0.47 -0.16,0.71 -0.01,0.08 0,0.18 0.09,0.2 0.12,0.03 0.11,-0.09 0.12,-0.16 0.02,-0.09 0.04,-0.19 0.14,-0.21 0.06,-0.01 0.09,0.05 0.08,0.08 -0.06,0.11 0.22,0.19 0.02,0.3 -0.14,0.07 -0.11,0.26 -0.2,0.35 -0.43,-0.42 -0.47,-0.85 -0.09,-1.29zm-0.02 -1.44c0.09,-0.54 0.6,-1.1 0.97,-1.11 -0.13,0.12 -0.38,0.24 -0.33,0.36 0.14,0.38 -0.28,0.34 -0.31,0.57 -0.06,-0.19 0.14,-0.27 0.13,-0.47 -0.22,0.17 -0.28,0.42 -0.46,0.66zm-4.72 -0.75c-0.13,-0.61 0.07,-1.08 0.54,-1.29 -0.04,0.15 0.07,0.34 -0.22,0.34 -0.12,0 -0.17,0.19 -0.24,0.32 -0.11,0.21 -0.05,0.43 -0.08,0.64zm5.47 4.24c-0.42,-0.33 -0.48,-0.62 -0.24,-0.99 0.08,0.31 0.15,0.63 0.24,0.99zm-3.24 -4.7c0.29,0.38 0.26,0.81 -0.06,1.15 0.13,-0.38 0.23,-0.75 0.06,-1.15zm13.16 9.34c-0.37,-0.23 -0.04,-0.59 -0.13,-0.88 0.21,0.26 0.02,0.59 0.13,0.88zm-11.06 -7.15c-0.11,0.31 0.12,0.53 0.02,0.8 -0.28,-0.35 -0.29,-0.45 -0.02,-0.8zm0.69 -2.39c-0.34,-0.2 -0.43,-0.47 -0.44,-0.78 0.18,0.22 0.32,0.46 0.44,0.78zm-3.57 -2.38c0.22,-0.05 0.43,-0.22 0.69,-0.09 -0.23,0.17 -0.45,0.2 -0.69,0.09zm16.46 4.13c-0.13,-0.07 -0.12,-0.21 -0.2,-0.31 -0.08,-0.09 -0.34,-0.13 -0.19,-0.27 0.11,-0.1 0.23,0.12 0.32,0.23 0.08,0.08 0.13,0.19 0.08,0.35z"/>
  </g>
 </g>
</svg>
